<?xml version="1.0" encoding="UTF-8" standalone="no"?>
<!-- Created with Inkscape (http://www.inkscape.org/) -->

<svg
   width="512"
   height="512"
   viewBox="0 0 135.46667 135.46667"
   version="1.1"
   id="svg1"
   xml:space="preserve"
   inkscape:version="1.3.2 (091e20ef0f, 2023-11-25, custom)"
   sodipodi:docname="logo_inkscape.svg"
   xmlns:inkscape="http://www.inkscape.org/namespaces/inkscape"
   xmlns:sodipodi="http://sodipodi.sourceforge.net/DTD/sodipodi-0.dtd"
   xmlns="http://www.w3.org/2000/svg"
   xmlns:svg="http://www.w3.org/2000/svg"><sodipodi:namedview
     id="namedview1"
     pagecolor="#ffffff"
     bordercolor="#000000"
     borderopacity="0.25"
     inkscape:showpageshadow="2"
     inkscape:pageopacity="0.0"
     inkscape:pagecheckerboard="0"
     inkscape:deskcolor="#d1d1d1"
     inkscape:document-units="mm"
     inkscape:zoom="1"
     inkscape:cx="240"
     inkscape:cy="157"
     inkscape:window-width="1920"
     inkscape:window-height="1052"
     inkscape:window-x="0"
     inkscape:window-y="0"
     inkscape:window-maximized="1"
     inkscape:current-layer="layer1" /><defs
     id="defs1"><clipPath
       clipPathUnits="userSpaceOnUse"
       id="clipPath280"><rect
         style="display:inline;fill:#000000;fill-opacity:1;stroke:none;stroke-width:0.119062;stroke-linecap:round;stroke-linejoin:round;stroke-miterlimit:1.8;stroke-dasharray:none;stroke-opacity:1"
         id="rect281"
         width="135.46669"
         height="135.46669"
         x="-1.1698405e-05"
         y="-1.1698405e-05" /></clipPath></defs><g
     inkscape:label="Layer 1"
     inkscape:groupmode="layer"
     id="layer1"><rect
       style="display:inline;fill:#000000;fill-opacity:1;stroke:none;stroke-width:0.119062;stroke-linecap:round;stroke-linejoin:round;stroke-miterlimit:1.8;stroke-dasharray:none;stroke-opacity:1"
       id="rect33"
       width="135.46667"
       height="135.46667"
       x="0"
       y="0" /><path
       id="path17"
       style="display:none;fill:none;fill-opacity:1;stroke:#ffffff;stroke-width:1.05833;stroke-linecap:round;stroke-linejoin:round;stroke-miterlimit:1.8;stroke-dasharray:none;stroke-opacity:1"
       d="m 103.41802,88.429988 c -0.40632,2.112178 -10.224066,2.181825 -15.336098,3.27274 M 66.988234,84.128452 c -2.213496,0.691304 -4.008287,1.567504 -7.384393,1.745449 -6.484138,1.375393 -8.403147,2.043002 -8.840876,2.480952 -0.939254,1.736205 24.525827,2.248303 37.318957,3.347875 M 56.954064,83.990506 c 3.285746,4.439348 20.17001,5.294837 31.127858,7.712222 6.62608,1.205538 17.748658,2.008779 17.695558,3.776086 0.0264,2.20173 -23.556328,3.824384 -35.911064,5.740316 m 2.679211,-17.118274 c 5.609152,3.622158 14.240137,7.143049 23.10846,10.655986 8.404983,2.922233 11.788393,5.206774 12.329193,7.130328 0.25809,7.95882 -55.252635,7.80218 -83.561544,10.41247 M 97.307822,83.655384 c 2.129887,1.342421 5.643948,3.481917 6.110198,4.774604 m -2.30906,-4.086297 c -1.872509,6.684185 -22.194556,9.434822 -34.053836,11.309405 -9.886722,2.070411 -28.701794,4.020491 -29.504676,6.232074 -0.517806,3.14079 44.224615,4.6897 66.414672,7.04497 2.23661,0.28091 5.79724,0.45665 6.69377,0.84401 m -8.49475,-25.040267 9.3515,27.565757 M 94.723241,84.129094 C 88.121769,97.123361 60.52272,106.53163 24.421736,112.29964 M 54.444142,84.124709 C 42.60242,97.813838 40.760087,99.482972 24.421736,112.29964 m 45.62821,-29.247218 c -0.680704,-0.0579 -1.655958,0.24529 -3.061712,1.07603 M 82.50262,70.04287 c -8.315843,-0.319899 -15.189725,5.473338 -19.965439,10.74506 4.181223,0.03807 5.736299,1.208919 7.512765,2.284222 0.705577,-0.09725 2.110918,0.936763 2.651171,1.139585 m 28.644343,-1.409288 c -0.0869,-0.136475 0.21961,0.252477 -0.23651,1.541243 M 24.407646,21.790498 c 37.879333,10.35115 49.640946,28.789662 58.094974,48.252372 7.792511,-0.253388 13.063507,5.236411 15.926037,10.734817 1.519213,0.02112 2.180493,0.834388 2.921923,1.869038 0.50486,0.749628 0.93095,2.535463 1.08803,2.869132 m -6.502201,-2.533825 c -0.772093,0.142309 -0.986808,0.675547 -1.213166,1.14706 M 55.899184,82.873158 c -0.528994,0.110652 -0.998636,0.634921 -1.455042,1.251557 m 8.093039,-3.336785 c -2.869727,-0.09782 -4.785915,1.019073 -6.637997,2.217666 0.535316,0.08513 0.945448,0.844614 1.078265,1.046252 m 41.451208,-3.274161 c -0.831316,0.0121 -1.675286,0.169101 -2.686614,2.245118 0.449921,-0.01269 0.764,0.01152 1.345881,0.481123"
       sodipodi:nodetypes="cccccccccccccccccccccccccccccccccccccccccccccccccc" /><text
       xml:space="preserve"
       style="font-style:normal;font-variant:normal;font-weight:normal;font-stretch:normal;font-size:98.7778px;line-height:1;font-family:'Ostrich Sans';-inkscape-font-specification:'Ostrich Sans';display:none;fill:#ffffff;fill-opacity:1;stroke:none;stroke-width:0.119062;stroke-linecap:round;stroke-linejoin:round;stroke-miterlimit:1.8;stroke-dasharray:none;stroke-opacity:1"
       x="32.168869"
       y="106.51115"
       id="text33"><tspan
         sodipodi:role="line"
         id="tspan33"
         style="font-style:normal;font-variant:normal;font-weight:normal;font-stretch:normal;font-size:98.7778px;font-family:'Libre Baskerville';-inkscape-font-specification:'Libre Baskerville';fill:#ffffff;fill-opacity:1;stroke:none;stroke-width:0.119062"
         x="32.168869"
         y="106.51115"
         dx="0 -8.2399998">6.</tspan></text><path
       id="path278"
       style="display:inline;opacity:0.34534535;mix-blend-mode:normal;fill:none;fill-opacity:1;stroke:#ffffff;stroke-width:1.85208;stroke-linecap:round;stroke-linejoin:round;stroke-miterlimit:1.8;stroke-dasharray:5.55623996,5.55623996;stroke-dashoffset:1.35201839;stroke-opacity:1"
       d="m 117.05308,137.62226 c -10.83749,-0.95697 -11.19484,-24.07997 -16.79227,-36.11995 m 38.86324,-49.680387 c -3.54705,-5.213281 -8.04279,-9.440422 -8.95582,-17.391912 -7.05707,-15.2716 -10.48254,-19.7913 -12.72964,-20.82225 -8.90838,-2.21215 -11.53593,57.763845 -17.17778,87.894549 m 39.57103,-73.313119 c -22.77807,7.73867 -27.16755,47.504917 -39.57103,73.313119 -6.185559,15.60591 -10.30695,41.80208 -19.374914,41.67702 -11.296974,0.0622 -19.622724,-55.480455 -29.453274,-84.57864 m 87.833018,6.310145 C 120.68052,78.12165 102.61501,98.449561 84.590297,119.33645 69.596462,139.13209 57.874592,147.10078 48.004932,148.37448 7.1686123,148.98234 7.9723223,18.242091 -5.4209377,-48.431759 M 141.55134,123.23138 c -6.8879,5.01636 -17.86555,13.29276 -24.49826,14.39088 m 20.96659,-5.43835 C 103.72344,127.77373 89.610056,79.910737 79.991664,51.979465 69.368482,28.694011 59.362722,-15.619729 48.015192,-17.510689 c -16.11523,-1.21955 -24.06262,104.158923 -36.14739,156.421509 -1.44136,5.26771 -2.3430397,13.6538 -4.3305697,15.76533 M 136.01761,134.66911 -5.4209377,156.69399 M 139.12075,117.14411 C 72.447802,101.59616 24.174442,36.594181 -5.4209377,-48.431759 M 139.14325,22.277761 C 68.905002,-5.6121587 60.340752,-9.9512687 -5.4209377,-48.431759 M 144.6451,59.032944 c 0.29709,-1.60321 -1.25857,-3.900154 -5.52105,-7.211021 m 72.27243,36.539872 c 1.64139,-19.585683 -28.08343,-35.775222 -55.13238,-47.023104 -0.19533,9.847722 -6.2029,13.510275 -11.72023,17.694253 0.49899,1.661793 -4.80649,4.971687 -5.84715,6.244105 m 7.23098,67.463881 c 0.70025,-0.20467 -1.29544,0.51722 -7.90804,-0.55704 M 458.97703,-48.464949 C 405.8658,40.749411 311.25869,68.450655 211.39648,88.361795 c 1.30012,18.353115 -26.86777,30.767495 -55.07982,37.509395 -0.10838,3.5781 -4.28121,5.13556 -9.58994,6.88179 -3.84631,1.18906 -13.00934,2.1926 -14.72138,2.56255 m 13.00093,-15.31413 c -0.73018,-1.81846 -3.4662,-2.32416 -5.88551,-2.85729 m 6.44414,-91.439399 c -0.56775,-1.2459 -3.25775,-2.35201 -6.42168,-3.42695 m 17.12088,19.06093 c 0.50191,-6.75885 -5.22881,-11.27191 -11.37874,-15.63398 -0.43679,1.26079 -4.33367,2.22675 -5.36826,2.53956 m 16.79956,97.626919 c -0.0621,-1.95793 -0.86765,-3.94567 -11.51959,-6.32758 0.0651,1.05967 -0.0591,1.7994 -2.46862,3.16986"
       sodipodi:nodetypes="cccccccccccccccccccccccccccccccccccccccccccccccccc"
       clip-path="url(#clipPath280)" /><path
       style="font-size:98.7778px;line-height:1;font-family:'Libre Baskerville';-inkscape-font-specification:'Libre Baskerville';display:inline;fill:#ffffff;stroke-width:0.119062;stroke-linecap:round;stroke-linejoin:round;stroke-miterlimit:1.8"
       d="m 90.052661,80.927696 q 0,5.531557 -2.074334,10.371669 -1.975556,4.840112 -5.531557,8.494891 -3.556001,3.556004 -8.396113,5.630334 -4.741335,2.07433 -10.174114,2.07433 -5.630334,0 -10.371669,-2.46944 -4.741334,-2.56822 -8.198557,-7.112002 -3.358446,-4.543779 -5.235224,-10.766781 -1.876778,-6.321779 -1.876778,-13.92767 0,-8.98878 2.469445,-16.891004 2.469445,-8.001002 6.71689,-13.92767 4.247446,-6.025446 9.976558,-9.482669 5.729113,-3.457223 12.14967,-3.457223 3.556001,0 6.618113,0.790223 3.160889,0.790222 5.432779,2.173111 2.370667,1.284112 3.654778,3.16089 1.38289,1.876778 1.38289,3.951112 0,2.370667 -1.481667,3.753557 -1.38289,1.382889 -3.852335,1.382889 -2.864556,0 -4.148667,-1.679223 -1.185334,-1.679222 -2.27189,-3.654778 -1.086556,-2.074334 -2.765778,-3.753557 -1.679223,-1.679223 -5.432779,-1.679223 -3.457223,0 -6.32178,2.370668 -2.864556,2.370667 -5.037667,6.519335 -2.173112,4.148667 -3.358446,9.87778 -1.185333,5.729112 -1.185333,12.347225 l 0.296333,0.197556 q 3.16089,-4.642557 6.815668,-6.716891 3.753557,-2.173112 8.791225,-2.173112 5.037668,0 9.285113,1.876779 4.247446,1.876778 7.408335,5.235223 3.16089,3.259668 4.93889,7.803446 1.778001,4.445001 1.778001,9.680225 z M 50.54154,78.557029 q 0,24.496891 13.730115,24.496891 6.815668,0 10.075335,-5.23522 3.358446,-5.334001 3.358446,-16.495893 0,-9.87778 -3.16089,-15.014226 -3.16089,-5.136445 -9.285113,-5.136445 -4.543779,0 -8.001002,2.963334 -3.457223,2.963334 -6.716891,9.581446 z m 43.519535,22.521341 q 0,-2.765781 1.876779,-4.642559 1.876778,-1.876778 4.543776,-1.876778 2.76578,0 4.64256,1.876778 1.87678,1.876778 1.87678,4.642559 0,2.667 -1.87678,4.54378 -1.87678,1.87677 -4.64256,1.87677 -2.666998,0 -4.543776,-1.87677 -1.876779,-1.87678 -1.876779,-4.54378 z"
       id="text281"
       aria-label="6." /></g></svg>
